<svg xmlns="http://www.w3.org/2000/svg" width="256" height="256" viewBox="0 0 100 100"><rect width="100" height="100" rx="20" fill="#1f00ff"></rect><path fill="#fff" d="M29.37 79.16L16.05 79.16L16.05 20.84L28.72 20.84Q35.20 20.84 38.98 22.82Q42.76 24.80 44.38 28.76Q46.00 32.72 46.00 38.62L46.00 38.62L46.00 60.08Q46.00 66.27 44.38 70.52Q42.76 74.77 39.13 76.96Q35.49 79.16 29.37 79.16L29.37 79.16ZM24.19 26.89L24.19 73.33L28.80 73.33Q33.26 73.33 35.13 71.60Q37.00 69.87 37.40 66.56Q37.80 63.25 37.80 58.57L37.80 58.57L37.80 39.63Q37.80 35.10 37.22 32.29Q36.64 29.48 34.70 28.18Q32.76 26.89 28.58 26.89L28.58 26.89L24.19 26.89ZM62.13 79.16L54.00 79.16L54.00 20.84L65.73 20.84Q71.56 20.84 75.38 22.39Q79.20 23.94 81.03 27.36Q82.87 30.78 82.87 36.32L82.87 36.32Q82.87 39.70 82.15 42.48Q81.43 45.25 79.84 47.16Q78.26 49.06 75.67 49.93L75.67 49.93L83.95 79.16L76.10 79.16L68.47 51.80L62.13 51.80L62.13 79.16ZM62.13 26.67L62.13 45.97L65.23 45.97Q68.68 45.97 70.84 45.10Q73.00 44.24 74.01 42.15Q75.02 40.06 75.02 36.32L75.02 36.32Q75.02 31.21 73.15 28.94Q71.28 26.67 65.73 26.67L65.73 26.67L62.13 26.67Z"></path></svg>